<mxfile host="app.diagrams.net" modified="2022-06-13T07:46:46.450Z" agent="5.0 (Macintosh; Intel Mac OS X 10_15_7) AppleWebKit/537.36 (KHTML, like Gecko) Chrome/102.0.5005.61 Safari/537.36" etag="a4yOxdUzrJRDJyi53sxT" version="20.0.0" type="github">
  <diagram id="2y3gFhWsURK6tQSYoNL8" name="Page-1">
    <mxGraphModel dx="946" dy="557" grid="1" gridSize="10" guides="1" tooltips="1" connect="1" arrows="1" fold="1" page="1" pageScale="1" pageWidth="827" pageHeight="1169" math="0" shadow="0">
      <root>
        <mxCell id="0" />
        <mxCell id="1" parent="0" />
        <mxCell id="JgV9Ua26fCHldO7we2_E-1" value="产品设计文档" style="shadow=0;dashed=0;html=1;strokeColor=none;fillColor=#4495D1;labelPosition=center;verticalLabelPosition=bottom;verticalAlign=top;align=center;outlineConnect=0;shape=mxgraph.veeam.checked_doc;fontColor=#FFFFFF;fontSize=17;" vertex="1" parent="1">
          <mxGeometry x="40" y="180" width="80" height="80" as="geometry" />
        </mxCell>
        <mxCell id="JgV9Ua26fCHldO7we2_E-3" value="产品" style="sketch=0;outlineConnect=0;gradientColor=none;fontColor=#FFFFFF;strokeColor=none;fillColor=#879196;dashed=0;verticalLabelPosition=bottom;verticalAlign=top;align=center;html=1;fontSize=17;fontStyle=0;aspect=fixed;shape=mxgraph.aws4.illustration_devices;pointerEvents=1" vertex="1" parent="1">
          <mxGeometry x="710" y="180" width="80" height="80" as="geometry" />
        </mxCell>
        <mxCell id="JgV9Ua26fCHldO7we2_E-4" value="流水线" style="fillColor=none;strokeColor=#5A6C86;verticalAlign=top;fontStyle=1;fontColor=#FFFFFF;fontSize=17;strokeWidth=2;" vertex="1" parent="1">
          <mxGeometry x="200" y="160" width="440" height="120" as="geometry" />
        </mxCell>
        <mxCell id="JgV9Ua26fCHldO7we2_E-5" value="CI" style="fillColor=none;strokeColor=#5A6C86;dashed=1;verticalAlign=top;fontStyle=1;fontColor=#FFFFFF;fontSize=17;" vertex="1" parent="1">
          <mxGeometry x="210" y="180" width="180" height="80" as="geometry" />
        </mxCell>
        <mxCell id="JgV9Ua26fCHldO7we2_E-6" value="CD" style="fillColor=none;strokeColor=#5A6C86;dashed=1;verticalAlign=top;fontStyle=1;fontColor=#FFFFFF;fontSize=17;" vertex="1" parent="1">
          <mxGeometry x="450" y="180" width="180" height="80" as="geometry" />
        </mxCell>
        <mxCell id="JgV9Ua26fCHldO7we2_E-7" value="" style="aspect=fixed;perimeter=ellipsePerimeter;html=1;align=center;shadow=0;dashed=0;fontColor=#FFFFFF;labelBackgroundColor=#ffffff;fontSize=17;spacingTop=3;image;image=img/lib/ibm/devops/build_test.svg;" vertex="1" parent="1">
          <mxGeometry x="280" y="210" width="40" height="40" as="geometry" />
        </mxCell>
        <mxCell id="JgV9Ua26fCHldO7we2_E-8" value="" style="sketch=0;html=1;dashed=0;whitespace=wrap;fillColor=#2875E2;strokeColor=#ffffff;points=[[0.005,0.63,0],[0.1,0.2,0],[0.9,0.2,0],[0.5,0,0],[0.995,0.63,0],[0.72,0.99,0],[0.5,1,0],[0.28,0.99,0]];shape=mxgraph.kubernetes.icon;prIcon=deploy;fontSize=17;fontColor=#FFFFFF;" vertex="1" parent="1">
          <mxGeometry x="520" y="210" width="40" height="40" as="geometry" />
        </mxCell>
        <mxCell id="JgV9Ua26fCHldO7we2_E-9" value="" style="outlineConnect=0;dashed=0;verticalLabelPosition=bottom;verticalAlign=top;align=center;html=1;shape=mxgraph.aws3.automation;fillColor=#759C3E;gradientColor=none;fontSize=17;fontColor=#FFFFFF;" vertex="1" parent="1">
          <mxGeometry x="400" y="200" width="40" height="40" as="geometry" />
        </mxCell>
        <mxCell id="JgV9Ua26fCHldO7we2_E-10" value="" style="triangle;whiteSpace=wrap;html=1;fontSize=17;fontColor=#FFFFFF;fillColor=none;strokeWidth=2;" vertex="1" parent="1">
          <mxGeometry x="640" y="140" width="40" height="160" as="geometry" />
        </mxCell>
      </root>
    </mxGraphModel>
  </diagram>
</mxfile>
